<?xml version="1.0" encoding="UTF-8"?>
<svg width="120px" height="120px" viewBox="0 0 120 120" version="1.1" xmlns="http://www.w3.org/2000/svg" xmlns:xlink="http://www.w3.org/1999/xlink">
    <title>Artboard</title>
    <g id="Artboard" stroke="none" stroke-width="1" fill="none" fill-rule="evenodd">
        <g id="Specifid-premium-Payments-Upgrade" fill-rule="nonzero">
            <polygon id="Path" fill="#FFFFFF" points="0 120 120 120 120 0 0 0"></polygon>
            <g id="Group" transform="translate(5.000000, 13.000000)">
                <polygon id="Path" fill="#C2E2FF" points="90.974 77.09 12.868 93.819 2.129 43.677 80.235 26.947"></polygon>
                <path d="M78.6196,19.4041 L80.3306,27.3911 L2.2236,44.1211 L0.5136,36.1331 L78.6196,19.4041 Z M35.0542,0.243 L41.6142,17.535 L17.5112,29 L9.3722,13.437 L20.4742,16.781 L22.7172,6.111 L31.2322,11.524 L35.0542,0.243 Z" id="Shape" fill="#116DFF"></path>
                <path d="M74.7505,36.0119 L81.1005,65.6599 L17.1945,79.3479 L10.8455,49.6999 L74.7505,36.0119 Z M9.3565,38.4165 C9.50520588,39.1082647 9.09850692,39.7902855 8.43737116,39.9990215 L8.3105,40.0325 C7.5755,40.1895 6.8515,39.7215 6.6935,38.9865 C6.54573529,38.2947353 6.95160381,37.6127145 7.61347232,37.4039785 L7.7405,37.3695 C8.4755,37.2125 9.1995,37.6805 9.3565,38.4165 Z M14.6822,37.2758 C14.8299647,37.9675647 14.4240962,38.6495855 13.7630614,38.8583215 L13.6362,38.8918 C12.9002,39.0488 12.1772,38.5808 12.0192,37.8458 C11.8714353,37.1540353 12.2773038,36.4720145 12.9383386,36.2624448 L13.0662,36.2288 C13.8012,36.0718 14.5242,36.5398 14.6822,37.2758 Z M20.0074,36.135 C20.1561059,36.8267647 19.7494069,37.5087855 19.0882712,37.7175215 L18.9614,37.751 C18.2264,37.909 17.5024,37.44 17.3444,36.705 C17.1874,35.97 17.6554,35.246 18.3914,35.089 C19.1264,34.931 19.8504,35.4 20.0074,36.135 Z" id="Shape" fill="#FFFFFF"></path>
                <path d="M33.9535,67.8665 C34.2095,69.0635 33.4465,70.2425 32.2495,70.4985 L25.3115,71.9845 C24.1145,72.2415 22.9355,71.4785 22.6795,70.2805 C22.4225,69.0835 23.1855,67.9055 24.3825,67.6485 L31.3215,66.1625 C32.5185,65.9065 33.6965,66.6695 33.9535,67.8665 Z M91.7778,26.0288 C92.5078556,25.5953 93.4403895,25.8165099 93.9023074,26.5087818 L93.9788,26.6358 L95.3538,29.1748 L95.8548,31.1888 L97.0858,32.3708 L103.1578,43.5828 C103.539918,44.2858588 103.333855,45.1545647 102.698851,45.6161613 L102.5748,45.6978 L76.0028,61.4858 C75.2718,61.9202444 74.3401056,61.6981951 73.8774415,61.0058269 L73.8008,60.8788 L67.7678,49.7408 L68.0628,47.5128 L66.0638,46.5938 L64.6218,43.9328 C64.2406235,43.2288 64.4467412,42.3600388 65.0817487,41.8984389 L65.2058,41.8168 L91.7778,26.0288 Z" id="Shape" fill="#1F77FF"></path>
                <path d="M45.8681,55.2395 L46.0771,56.2175 L20.8251,61.6265 L20.6161,60.6485 L45.8681,55.2395 Z M67.134,45.1158 L67.343,46.0938 L19.685,56.3018 L19.476,55.3238 L67.134,45.1158 Z M70.814,2.1637 C73.422,3.0977 74.386,4.3837 74.682,5.4697 C84.659,3.9147 94.221,6.3097 100.587,12.0377 C104.785,15.8147 106.842,20.5127 106.091,24.6047 L105.047,24.4447 C105.738,20.6807 103.795,16.3147 99.852,12.7657 C93.714,7.2427 84.46,4.9417 74.794,6.4637 L74.781082,6.71361191 C74.6433967,8.54856777 73.4776364,12.1196091 69.039,13.5877 C67.246,14.1807 66.129,13.8267 65.51,13.4257 C64.64,12.8617 64.311,11.9537 64.293,11.2917 C64.201,7.8807 70.628,6.2637 72.6,5.8497 C72.944,5.7777 73.288,5.7097 73.632,5.6467 C73.226,4.3587 71.711,3.5587 70.429,3.0997 C63.073,0.4647 47.181,2.5367 41.005,8.2647 L40.267,7.5547 C46.81,1.4857 63.022,-0.6273 70.814,2.1637 Z M73.727,6.6467 C73.425,6.7027 73.123,6.7627 72.819,6.8267 L72.3185306,6.93698712 C68.9632472,7.7110288 65.2986667,9.2557 65.352,11.2557 C65.363,11.6537 65.57,12.2447 66.117,12.5987 C66.716,12.9877 67.608,13.0037 68.698,12.6437 C72.623,11.3457 73.624,8.2107 73.727,6.6467 Z" id="Shape" fill="#192C55"></path>
                <polygon id="Path" fill="#FFFFFF" points="95.351 29.174 97.09 32.377 71.687 47.476 108.883 62.752 100.978 83.762 52.27 63.758 60.175 42.748 67.476 45.747"></polygon>
                <path d="M59.6017,41.4321 L110.1607,62.1961 L101.5507,85.0791 L50.9917,64.3141 L59.6017,41.4321 Z M67.5107,46.8421 C65.7945605,49.946193 62.1341094,51.4293904 58.6427656,50.399919 L58.3937,50.3221 L56.0287,56.6071 C59.231581,58.3827905 60.9078395,62.1044005 60.0769829,65.6007063 L60.0117,65.8561 L93.8167,79.7401 C95.4595837,76.5813093 99.082078,75.0186095 102.574492,75.9465693 L102.8237,76.0171 L105.1337,69.8801 C101.967846,68.097661 100.31157,64.4077859 101.126901,60.9351102 L101.1927,60.6751 L67.5107,46.8421 Z M74.2373,60.6519 C75.5463,57.1739 79.4453,55.5199 82.9463,56.9579 C86.4463,58.3959 88.2243,62.3809 86.9153,65.8589 C85.6073,69.3369 81.7083,70.9909 78.2073,69.5529 C74.7063,68.1149 72.9283,64.1299 74.2373,60.6519 Z" id="Shape" fill="#28BF9A"></path>
            </g>
        </g>
    </g>
</svg>