<svg xmlns="http://www.w3.org/2000/svg" width="120" height="120" viewBox="0 0 120 120">
  <g fill="none" fill-rule="evenodd">
    <polygon fill="#FFF" points="0 120 120 120 120 0 0 0"/>
    <g transform="translate(15.13 12.038)">
      <path fill="#192C55" d="M82.7423,1.0932 L83.4533,1.7972 L72.2143,13.1452 L71.5033,12.4412 L82.7423,1.0932 Z M66.2217,-1.42108547e-14 L67.1907,0.245 L64.7847,9.777 L63.8147,9.532 L66.2217,-1.42108547e-14 Z"/>
      <polygon fill="#116DFF" points="0 48.312 29.473 5.049 76.83 24.672 49.954 70.426"/>
      <polygon fill="#FFF" points="59.483 15.676 9.877 30.938 27.149 87.075 76.754 71.813"/>
      <polygon fill="#C2E2FF" points="89.74 67.812 89.7 67.832 89.69 67.832 12.6 91.552 12.57 91.562 13.396 90.214 12.21 90.332 0 48.312 34.52 57.212 34.854 58.117 35.55 57.482 42.41 47.692 53.96 52.552 54.984 52.585 54.62 51.742 76.83 24.672 89.38 66.602 88.452 66.765"/>
      <path fill="#FFD527" d="M41.8432,45.3261 L41.8432,45.3261 C33.8962,47.7711 25.4712,43.3111 23.0262,35.3631 C20.5802,27.4161 25.0412,18.9911 32.9892,16.5461 C40.9362,14.1011 49.3612,18.5611 51.8062,26.5091 C54.2512,34.4561 49.7912,42.8811 41.8432,45.3261"/>
      <path fill="#192C55" d="M34.5198,57.2116 L35.5498,57.4816 L12.5998,91.5516 L12.5708,91.5616 L12.2098,90.3316 L34.5198,57.2116 Z M54.6202,51.7417 L89.3802,66.6017 L89.7402,67.8117 L89.7002,67.8317 L89.6902,67.8317 L53.9602,52.5517 L54.6202,51.7417 Z M41.5872,38.1198 C41.876,39.0603 41.3895525,40.0540475 40.4922419,40.411713 L40.3472,40.4628 C39.3582,40.7668 38.3092,40.2118 38.0042,39.2228 C37.7002,38.2328 38.2552,37.1838 39.2442,36.8798 C40.2342,36.5758 41.2832,37.1308 41.5872,38.1198 Z M37.1723,22.9681 L39.7773,34.5861 L37.5153,35.2821 L33.1393,24.2091 C32.6863,23.0621 33.3063,21.7721 34.4853,21.4091 C35.6633,21.0461 36.9023,21.7651 37.1723,22.9681 Z"/>
    </g>
  </g>
</svg>
