<svg xmlns="http://www.w3.org/2000/svg" width="300" height="200" viewBox="0 0 300 200">
  <g fill="none" fill-rule="evenodd">
    <polygon fill="#FFF" points="0 200 300 200 300 0 0 0"/>
    <g transform="translate(38 11)">
      <path fill="#FFD527" d="M10.96,157 C7.61,157 4.8,154.28 4.68,150.93 C4.62,149.34 5.19,147.85 6.27,146.73 C7.34,145.61 8.81,145 10.4,145 C10.76,145 11.1,145.04 11.44,145.1 L11.87,156.92 C11.57,156.97 11.27,157 10.96,157 L10.96,157 Z M48.88,128 L27.88,128.02 L27.404,129.02 L26.88,128.02 L10.83,128.03 L11.3,141.05 C11,141.02 10.7,141 10.4,141 C7.72,141 5.23,142.05 3.39,143.95 C1.55,145.86 0.59,148.38 0.68,151.07 C0.87,156.55 5.48,161 10.96,161 C11.31,161 11.67,160.98 12.01,160.94 L12.48,174 L50.48,174 L48.88,128 Z"/>
      <polygon fill="#FFF" points="34 152 23 152 22 139 27.26 139 26.88 128.02 27.88 128.02 28.26 139 33 139"/>
      <line x1="2" x2="210" y1="174.5" y2="174.5" stroke="#192C55"/>
      <path fill="#192C55" d="M141.0674,172.4849 L128.0004,168.9999 L128.0004,143.9999 L110.0004,143.9999 L110.0004,168.9999 L96.9324,172.4849 C95.7934,172.7889 95.0004,173.8209 95.0004,174.9999 L143.0004,174.9999 C143.0004,173.8209 142.2074,172.7889 141.0674,172.4849"/>
      <polygon fill="#C2E2FF" points="197.997 146 118 146 118.004 46 198 46"/>
      <polygon fill="#116DFF" points="198 46 40.009 46 40 34 197.991 34"/>
      <path fill="#FFF" d="M63.5,39 C64.329,39 65,39.672 65,40.5 C65,41.2792941 64.4056194,41.9204014 63.6445496,41.9931292 L63.5,42 C62.671,42 62,41.328 62,40.5 C62,39.672 62.671,39 63.5,39 Z M49.5,39 C50.329,39 51,39.672 51,40.5 C51,41.2792941 50.4056194,41.9204014 49.6445496,41.9931292 L49.5,42 C48.671,42 48,41.328 48,40.5 C48,39.672 48.671,39 49.5,39 Z M56.5,39 C57.329,39 58,39.672 58,40.5 C58,41.2792941 57.4056194,41.9204014 56.6445496,41.9931292 L56.5,42 C55.671,42 55,41.328 55,40.5 C55,39.672 55.671,39 56.5,39 Z"/>
      <polygon fill="#28BF9A" points="119.998 146 40 146 40.002 46 120 46"/>
      <polygon fill="#FFD527" points="203.874 123.578 122.234 104.544 150.455 .775 229.094 19.809"/>
      <path fill="#FFF" d="M202.7709,8.856 L199.0469,115.5 L108.6379,115.5 L112.3619,8.856 L202.7709,8.856 Z M80,68 L80.3138181,68.0032179 C88.4529492,68.1702766 95,74.8208608 95,83 C95,91.284 88.284,98 80,98 C71.716,98 65,91.284 65,83 C65,74.8208608 71.5470508,68.1702766 79.6861819,68.0032179 L80,68 Z"/>
      <polygon fill="#192C55" points="118.706 68.571 116.492 61.779 117.443 61.468 119.657 68.261"/>
      <path fill="#FCA760" d="M114.3546,53.61 L119.5796,57.839 L120.3876,60.316 C121.0116,62.229 119.9686,64.313 118.0586,64.97 C116.1486,65.628 114.0946,64.61 113.4706,62.697 L112.6626,60.219 L114.3546,53.61 Z M104.8541,12.6644 L106.4111,17.4404 L99.4941,19.8204 L97.9371,15.0454 C97.3131,13.1324 98.3561,11.0484 100.2661,10.3914 C102.1761,9.7334 104.2301,10.7514 104.8541,12.6644 Z"/>
      <path fill="#192C55" d="M107.1686,19.7656 L119.5796,57.8386 L112.6626,60.2186 L100.2516,22.1456 L107.1686,19.7656 Z M96.9642,17.7028 L101.6732,32.1898 L100.7222,32.4998 L96.0132,18.0128 L96.9642,17.7028 Z"/>
      <path fill="#28BF9A" d="M188,76 L187,104 L158,104 L159,76 L188,76 Z M153,21 L152,49 L123,49 L124,21 L153,21 Z"/>
      <path fill="#FFF" d="M169.46,85 L175.37,93.9 L176,94 L176.02,93.07 L178.89,89.33 L185,98 L160,98 L169.46,85 Z M175.0702,81 C176.1742,81 177.0382,81.896 177.0002,83 C176.962973,84.0538182 176.116638,84.9181157 175.079582,84.9945109 L174.9302,85 C173.8262,85 172.9612,84.104 173.0002,83 C173.0382,81.896 173.9652,81 175.0702,81 Z M134.46,30 L140.37,38.9 L141,39 L141.02,38.07 L143.89,34.33 L150,43 L125,43 L134.46,30 Z M140.0702,26 C141.1742,26 142.0382,26.896 142.0002,28 C141.962973,29.0538182 141.116638,29.9181157 140.079582,29.9945109 L139.9302,30 C138.8262,30 137.9612,29.104 138.0002,28 C138.0382,26.896 138.9652,26 140.0702,26 Z"/>
      <path fill="#192C55" d="M176.02 93.0699L178.04 96.1099 177.21 96.6699 175.37 93.8999 176.02 93.0699zM141.02 38.0699L143.04 41.1099 142.21 41.6699 140.37 38.8999 141.02 38.0699zM35.1232 88.69L35.0042 89.683C28.7632 88.938 22.4942 91.309 18.6412 95.876 17.4932 97.237 16.8162 98.507 16.5722 99.758 16.2732 101.285 16.6722 102.848 17.6122 103.837 17.9682 104.212 18.4022 104.519 18.9172 104.759 23.1982 101.242 28.7092 99.187 34.4142 99.044 35.6132 99.013 36.4532 99.489 36.5932 100.285 36.7392 101.115 35.9992 101.707 35.7572 101.901 32.0232 104.894 27.2672 106.495 22.3552 106.416 21.0922 106.395 20.0122 106.228 19.1012 105.911 18.5922 106.353 18.1022 106.816 17.6342 107.301 17.2282 107.72 16.7312 108.409 16.6622 109.305 16.5482 110.791 17.4572 111.74 19.5252 112.293 21.4442 112.806 23.4562 112.919 25.4102 112.65 25.6932 112.261 26.0042 111.872 26.3432 111.484 26.9792 110.758 28.0202 109.747 29.3722 109.06 30.2732 108.601 31.1552 109.098 31.5242 109.8 31.8832 110.481 31.7972 111.415 30.9392 111.881 29.3972 112.72 27.7152 113.288 25.9842 113.574 24.9942 115.031 24.4402 116.484 24.3322 117.911 24.1592 120.204 25.2882 122.462 27.0792 123.401L26.6142 124.287C24.4812 123.168 23.1332 120.515 23.3352 117.835 23.4382 116.472 23.8952 115.1 24.6992 113.734 22.8832 113.886 21.0372 113.732 19.2672 113.259 16.7232 112.579 15.5112 111.222 15.6652 109.228 15.7382 108.284 16.1702 107.378 16.9142 106.606 17.2952 106.211 17.6902 105.83 18.0982 105.463 17.6382 105.204 17.2352 104.893 16.8872 104.526 15.7272 103.307 15.2312 101.406 15.5902 99.566 15.8682 98.144 16.6162 96.726 17.8762 95.231 21.9442 90.411 28.5492 87.905 35.1232 88.69zM100 118L100 119 60 119 60 118 100 118zM30.0892 109.884C30.0082 109.884 29.9192 109.904 29.8252 109.951 28.71695 110.51475 27.8330542 111.331424 27.2482272 111.972759L27.0962 112.143C27.0302 112.218 26.9652 112.293 26.9022 112.369 28.1412 112.07 29.3412 111.613 30.4622 111.003 30.8702 110.781 30.7012 110.383 30.6392 110.266 30.5532 110.102 30.3582 109.884 30.0892 109.884zM100 109L100 110 60 110 60 109 100 109zM34.4392 100.044C29.1692 100.176 24.0722 102.004 20.0352 105.145 20.7122 105.312 21.4892 105.402 22.3712 105.416 27.0572 105.495 31.5792 103.968 35.1322 101.121 35.4762 100.845 35.6372 100.622 35.6082 100.458 35.5572 100.168 34.9922 100.031 34.4392 100.044zM151 88L151 89 123 89 123 88 151 88zM151 78L151 79 123 79 123 78 151 78zM188 68L188 69 123 69 123 68 188 68zM122.986 57.97L189 58 189 59 122.986 58.97 122.986 57.97zM189.008 48L189.008 49 161 49 161 48 189.008 48zM189 38L189 39 161 39 161 38 189 38z"/>
    </g>
  </g>
</svg>
