<svg xmlns="http://www.w3.org/2000/svg" width="120" height="120" viewBox="0 0 120 120">
  <g fill="none" fill-rule="evenodd">
    <polygon fill="#FFF" points="0 120 120 120 120 0 0 0"/>
    <g transform="translate(12 3)">
      <path fill="#D72E15" d="M41.5708,30.1793 C46.4428,33.8093 47.4498,40.7003 43.8208,45.5713 C40.1918,50.4423 33.3008,51.4493 28.4288,47.8203 C23.5578,44.1913 22.5498,37.3003 26.1788,32.4283 C29.8078,27.5573 36.6988,26.5503 41.5708,30.1793 Z M87.3389,22.5591 L95.2459,31.7171 C96.8419,33.5841 96.7539,36.4181 95.0489,38.0131 C93.3449,39.6091 90.6449,39.3871 89.0489,37.5201 L81.1419,28.3611 C79.5459,26.4941 79.6339,23.6611 81.3389,22.0661 C83.0429,20.4701 85.7429,20.6921 87.3389,22.5591 Z M48.5,14 C50.433,14 52,15.567 52,17.5 C52,19.3685667 50.5357256,20.8951267 48.6920355,20.9948211 L48.5,21 C46.567,21 45,19.433 45,17.5 C45,15.567 46.567,14 48.5,14 Z"/>
      <path fill="#FFB6AC" d="M80.1174,40 L66.8824,104 L27.8824,104 L19.1174,40 L80.1174,40 Z M36.709,1.7361 L44.073,3.4771 L4.025,39.0651 L3.069,31.6301 L36.709,1.7361 Z"/>
      <path fill="#182D55" d="M66.7172,49.906 L67.6992,50.094 L58.5232,98.094 L57.5412,97.906 L66.7172,49.906 Z M31.8248,49.9393 L37.6488,97.9393 L36.6558,98.0603 L30.8318,50.0603 L31.8248,49.9393 Z M47.7688,49.9823 L48.7678,50.0173 L47.0918,98.0173 L46.0918,97.9823 L47.7688,49.9823 Z M46.5578,0.5069 L47.2238,1.2529 L1.5398,42.0359 L0.8738,41.2899 L46.5578,0.5069 Z M36.8576,31.4968 C37.0696,32.8658 38.0206,33.9778 39.3396,34.3988 C39.5666,34.4708 39.8006,34.5208 40.0356,34.5478 C40.4086,34.5898 40.7836,34.5738 41.1496,34.5008 L41.3466,35.4818 C41.0486,35.5408 40.7466,35.5708 40.4446,35.5708 C40.2706,35.5708 40.0966,35.5608 39.9236,35.5408 C39.6236,35.5078 39.3256,35.4438 39.0356,35.3518 C37.3536,34.8138 36.1406,33.3958 35.8696,31.6498 L36.8576,31.4968 Z M70.6423,15.8384 C74.2553,21.0804 72.8733,28.3044 67.5563,31.9744 C62.2403,35.6444 55.0013,34.3694 51.3883,29.1284 L70.6423,15.8384 Z M74.0938,3.5964 C75.4808,4.1384 76.4848,4.8964 77.0778,5.8474 C77.1518,5.9664 77.2178,6.0874 77.2768,6.2124 C79.9028,5.6814 82.8588,6.1494 85.2288,7.5954 C88.0358,9.3064 90.1538,12.3034 91.1918,16.0324 L90.2288,16.3004 C89.2588,12.8164 87.2978,10.0284 84.7078,8.4484 C82.5768,7.1484 79.9298,6.7154 77.5768,7.1674 C77.7198,8.0314 77.5408,8.9174 77.0398,9.6084 C76.4888,10.3714 75.5868,10.8274 74.7358,10.7724 C74.1858,10.7364 73.6628,10.4574 73.3368,10.0254 C73.0628,9.6624 72.9608,9.2344 73.0508,8.8194 C73.2058,8.0954 73.8488,7.6314 74.3198,7.3454 C74.9268,6.9764 75.5878,6.6834 76.2818,6.4664 L76.2288,6.3764 L76.2288,6.3764 C75.7588,5.6224 74.8948,4.9834 73.7298,4.5284 C71.3738,3.6084 68.3888,3.5984 65.3248,4.5024 C62.4698,5.3434 59.8448,6.8404 57.4328,8.3324 L56.9068,7.4824 C59.3778,5.9534 62.0738,4.4174 65.0418,3.5424 C68.3178,2.5774 71.5328,2.5964 74.0938,3.5964 Z M76.6038,7.4104 C75.9788,7.6054 75.3848,7.8684 74.8388,8.1994 C74.3488,8.4974 74.0838,8.7684 74.0278,9.0294 C73.9928,9.1914 74.0668,9.3334 74.1348,9.4234 C74.2858,9.6234 74.5408,9.7574 74.8018,9.7744 C75.2988,9.8064 75.8808,9.5054 76.2298,9.0224 C76.5578,8.5694 76.6828,7.9894 76.6038,7.4104 Z"/>
    </g>
  </g>
</svg>
